<?xml version="1.0" standalone="no"?>
<!DOCTYPE svg PUBLIC "-//W3C//DTD SVG 20010904//EN"
 "http://www.w3.org/TR/2001/REC-SVG-20010904/DTD/svg10.dtd">
<svg version="1.0" xmlns="http://www.w3.org/2000/svg"
 width="700.000000pt" height="700.000000pt" viewBox="0 0 700.000000 700.000000"
 preserveAspectRatio="xMidYMid meet">
<metadata>
Created by potrace 1.14, written by Peter Selinger 2001-2017
</metadata>
<g transform="translate(0.000000,700.000000) scale(0.100000,-0.100000)"
fill="#000000" stroke="none">
<path d="M3579 6066 c-2 -2 -44 -7 -94 -11 -49 -4 -92 -8 -95 -10 -3 -2 -27
-6 -55 -10 -124 -16 -338 -73 -495 -131 -406 -152 -780 -410 -1065 -739 -108
-124 -245 -327 -328 -485 -88 -166 -200 -457 -212 -549 -6 -53 68 -96 110 -61
8 6 44 64 81 128 272 478 628 817 1135 1081 227 118 520 221 699 245 14 2 45
7 70 10 130 19 199 23 354 21 94 -1 185 -5 201 -9 17 -3 50 -8 75 -11 118 -13
344 -75 479 -130 197 -81 422 -218 566 -344 82 -73 223 -219 281 -291 32 -41
62 -77 65 -80 16 -14 128 -196 175 -284 107 -204 191 -456 225 -681 32 -207
30 -466 -6 -675 -12 -73 -12 -74 -39 -174 -122 -458 -400 -871 -796 -1182
-182 -143 -449 -298 -685 -399 -43 -18 -230 -84 -255 -90 -8 -2 -44 -11 -80
-20 -213 -56 -437 -82 -707 -84 -60 -1 -77 -5 -94 -22 -25 -25 -21 -83 8 -104
17 -13 188 -50 284 -61 24 -3 73 -9 109 -14 70 -9 446 -6 520 4 49 7 90 13
148 22 94 14 278 60 387 96 475 159 874 433 1200 823 142 170 306 444 388 645
50 123 50 125 52 130 1 3 16 51 34 108 17 56 41 144 52 195 26 118 25 113 34
177 4 30 9 64 11 75 31 156 18 635 -21 775 -2 8 -7 35 -10 59 -24 166 -145
512 -242 690 -71 130 -199 325 -248 377 -5 6 -26 31 -45 55 -48 61 -273 286
-340 340 -62 50 -60 48 -115 89 -22 16 -44 33 -50 38 -5 4 -58 37 -116 74
-312 195 -681 330 -1025 373 -27 4 -60 9 -74 12 -30 6 -445 14 -451 9z"/>
<path d="M718 4883 c-22 -25 -56 -125 -71 -210 -18 -97 -19 -375 -1 -493 45
-297 157 -611 289 -810 68 -101 111 -117 239 -84 105 26 400 183 501 266 11 9
54 42 95 73 186 138 379 366 475 560 46 93 59 144 44 182 -7 20 -12 21 -37 12
-15 -5 -44 -23 -63 -39 -19 -16 -97 -79 -174 -140 -77 -61 -147 -116 -155
-123 -8 -7 -62 -48 -120 -92 -58 -44 -107 -83 -110 -86 -3 -4 -23 -15 -45 -26
-22 -11 -70 -36 -108 -56 -156 -85 -259 -88 -329 -12 -67 72 -150 266 -221
515 -37 130 -50 183 -112 470 -22 103 -58 137 -97 93z"/>
</g>
</svg>
