<?xml version="1.0" encoding="UTF-8" standalone="no"?>
<!-- Generator: Adobe Illustrator 26.3.1, SVG Export Plug-In . SVG Version: 6.00 Build 0)  -->

<svg
   version="1.1"
   id="Layer_1"
   x="0px"
   y="0px"
   viewBox="0 0 200 200"
   xml:space="preserve"
   sodipodi:docname="logo-blue.svg"
   inkscape:version="1.2.1 (9c6d41e, 2022-07-14)"
   width="200"
   height="200"
   xmlns:inkscape="http://www.inkscape.org/namespaces/inkscape"
   xmlns:sodipodi="http://sodipodi.sourceforge.net/DTD/sodipodi-0.dtd"
   xmlns="http://www.w3.org/2000/svg"
   xmlns:svg="http://www.w3.org/2000/svg"><defs
   id="defs81" /><sodipodi:namedview
   id="namedview79"
   pagecolor="#000000"
   bordercolor="#000000"
   borderopacity="0.25"
   inkscape:showpageshadow="2"
   inkscape:pageopacity="0"
   inkscape:pagecheckerboard="0"
   inkscape:deskcolor="#d1d1d1"
   showgrid="false"
   inkscape:zoom="1.1614745"
   inkscape:cx="62.420655"
   inkscape:cy="82.653558"
   inkscape:window-width="1512"
   inkscape:window-height="916"
   inkscape:window-x="0"
   inkscape:window-y="38"
   inkscape:window-maximized="0"
   inkscape:current-layer="Layer_1" />
<style
   type="text/css"
   id="style46">
	.st0{fill:#009FE3;}
	.st1{clip-path:url(#SVGID_00000142167476351675356410000012842790861168998546_);fill:#FFFFFF;}
	.st2{clip-path:url(#SVGID_00000142167476351675356410000012842790861168998546_);fill:#CDCCCC;}
	.st3{fill:#FFFFFF;}
</style>

<rect
   style="display:none;fill:#009fe3;fill-opacity:1;stroke-width:0.925832"
   id="rect1053"
   width="200"
   height="200"
   x="0"
   y="0" /><g
   id="g76"
   transform="matrix(1.2223805,0,0,1.2223805,-44.59663,-44.854732)">
	
	
	
	
	
	
	
	
	
	
	
	
	<path
   class="st3"
   d="m 113.95254,59.3026 c -24.315831,4.188507 -42.690916,22.066968 -48.56607,44.13393 -0.505995,1.88343 2.117679,2.91416 3.035965,1.19003 4.057323,-7.580543 9.913737,-16.332368 21.017499,-23.659913 6.830921,-4.507097 20.342836,-12.443709 38.708546,-10.157365 16.19182,2.023977 28.30757,11.722198 35.44771,22.882181 7.42124,11.862747 10.98194,28.326297 4.56331,44.639927 -6.7747,17.22254 -20.22102,25.28097 -27.44549,29.12278 -11.75031,6.24059 -22.23564,7.18699 -30.82817,7.1214 -1.95838,-0.0187 -2.30508,2.7736 -0.41229,3.24211 22.18878,5.40664 46.68265,-2.16453 62.00303,-21.50475 14.92683,-18.8436 17.1101,-44.56497 6.51233,-65.338843 C 165.8919,67.941982 140.00187,54.804874 113.95254,59.3026 Z"
   id="path72"
   style="stroke-width:0.937026" />
	<path
   class="st3"
   d="m 88.933939,97.936187 c -0.149924,0.075 -0.290478,0.16867 -0.431032,0.28111 -1.08695,0.86206 -2.16453,1.72413 -3.242111,2.586193 -1.583574,1.27436 -3.157778,2.55808 -4.760093,3.8137 -1.405539,1.09632 -2.839189,2.14579 -4.254099,3.23274 -0.374811,0.29048 -0.71214,0.63718 -1.086951,0.92765 -0.35607,0.27174 -0.74025,0.506 -1.124431,0.73088 -0.243627,0.14056 -0.534105,0.19678 -0.777732,0.33733 -0.890175,0.506 -1.733498,1.06821 -2.642414,1.51799 -1.339947,0.67466 -2.736117,1.23687 -4.254099,1.35868 -1.049469,0.0843 -1.986496,-0.1874 -2.708006,-0.94639 -0.487254,-0.506 -0.955767,-1.04947 -1.321207,-1.64917 -1.218134,-1.98649 -2.061458,-4.15102 -2.811079,-6.35304 -1.761609,-5.181753 -3.035965,-10.494689 -4.047953,-15.863849 -0.08433,-0.440402 -0.187405,-0.890175 -0.374811,-1.302466 -0.477883,-1.05884 -1.311836,-1.133802 -2.023976,-0.206146 -0.140554,0.178035 -0.281108,0.36544 -0.35607,0.580956 -0.281108,0.796472 -0.590327,1.592945 -0.777732,2.417528 -0.833953,3.738735 -0.890175,7.524314 -0.571586,11.328647 0.36544,4.3478 1.461761,8.52694 2.942262,12.62174 1.171283,3.23274 2.586193,6.3343 4.647651,9.11727 0.787102,1.06821 1.770979,1.64916 3.129667,1.45239 0.505994,-0.075 1.011989,-0.14993 1.499242,-0.28111 1.958385,-0.49662 3.785586,-1.33058 5.547196,-2.29571 1.686647,-0.91829 3.307702,-1.96776 4.99435,-2.97975 1.330577,-0.98387 2.679895,-2.00523 4.057323,-3.00785 1.377429,-1.00262 2.623674,-2.14579 3.804327,-3.3733 2.614303,-2.72674 4.938128,-5.67838 6.7747,-8.98608 0.580956,-1.0401 1.105691,-2.10831 1.330577,-3.298333 0.07496,-0.40292 0.0937,-0.85269 0.0094,-1.25561 -0.121813,-0.61844 -0.618437,-0.79648 -1.171283,-0.506 z"
   id="path74"
   style="stroke-width:0.937026" />
</g></svg>
