<?xml version="1.0" encoding="utf-8"?>
<!-- Generator: Adobe Illustrator 26.3.1, SVG Export Plug-In . SVG Version: 6.00 Build 0)  -->
<svg version="1.1" id="Layer_1" xmlns="http://www.w3.org/2000/svg" xmlns:xlink="http://www.w3.org/1999/xlink" x="0px" y="0px"
	 viewBox="0 0 194.64 203.19" style="enable-background:new 0 0 194.64 203.19;" xml:space="preserve">
<style type="text/css">
	.st0{fill:#009FE3;}
	.st1{clip-path:url(#SVGID_00000142167476351675356410000012842790861168998546_);fill:#FFFFFF;}
	.st2{clip-path:url(#SVGID_00000142167476351675356410000012842790861168998546_);fill:#CDCCCC;}
	.st3{fill:#FFFFFF;}
</style>
<g>
	<path class="st3" d="M168.74,27.61c0-0.16-0.01-0.31-0.02-0.45c-0.08-0.72-0.49-1.21-1.2-1.43c-0.71-0.22-1.36-0.04-1.92,0.55
		l-0.02-0.01c-0.08-0.04-0.15-0.08-0.22-0.11c-1.35-0.7-2.82-0.93-4.24-0.67c-1.44,0.27-2.69,1.01-3.63,2.15
		c-1.41,1.7-1.84,3.79-1.28,6.22c0.38,1.67,1.31,2.99,2.68,3.81c1.25,0.74,2.78,1.02,4.31,0.76c0.7-0.12,1.36-0.39,2.12-0.89
		c-0.15,1.15-0.75,2.45-2.02,2.66c-1.09,0.18-2.16-0.05-3.47-0.77c-0.04-0.03-0.09-0.05-0.13-0.08c-0.18-0.1-0.37-0.21-0.57-0.28
		c-0.78-0.28-1.69,0.04-2.08,0.74c-0.39,0.69-0.21,1.44,0.48,2.02c0.11,0.09,0.23,0.18,0.34,0.25c1.44,0.94,2.99,1.41,4.65,1.41
		c0.47,0,0.94-0.04,1.42-0.11c1.87-0.29,3.24-1.2,4.09-2.71c0.5-0.89,0.73-1.92,0.73-3.26v-2.63
		C168.74,32.36,168.74,29.83,168.74,27.61z M164.2,34.56c-0.76,0.66-1.71,0.9-2.62,0.65c-0.89-0.25-1.58-0.93-1.88-1.88
		c-0.42-1.31-0.29-2.51,0.4-3.55c0.47-0.71,1.2-1.12,2.05-1.16c0.04,0,0.08,0,0.12,0c0.88,0,1.79,0.41,2.28,1.03
		c0.5,0.62,0.73,1.35,0.73,2.3C165.26,33.09,164.9,33.94,164.2,34.56z"/>
	<path class="st3" d="M54.57,38.18c0.06,0.22,0.17,0.53,0.38,0.8c0.44,0.58,1.08,0.81,1.84,0.65c0.72-0.15,1.19-0.64,1.39-1.46
		c0.49-2.03,0.99-4.07,1.49-6.1c0.01-0.05,0.03-0.1,0.04-0.16L59.73,32c0.09,0.36,0.18,0.7,0.27,1.03c0.14,0.56,0.28,1.12,0.43,1.68
		c0.3,1.17,0.6,2.35,0.9,3.52c0.15,0.57,0.48,1.02,0.95,1.26c0.25,0.13,0.52,0.2,0.81,0.2c0.22,0,0.43-0.04,0.65-0.12
		c0.6-0.21,0.99-0.66,1.17-1.34c0.23-0.86,0.46-1.71,0.69-2.57c0.29-1.09,0.59-2.19,0.88-3.28c0.1-0.38,0.2-0.76,0.3-1.14
		c0.34-1.28,0.7-2.6,1.03-3.91c0.19-0.75-0.22-1.45-0.99-1.71c-0.53-0.18-1.02-0.16-1.42,0.06c-0.4,0.22-0.68,0.63-0.82,1.17
		c-0.17,0.7-0.34,1.4-0.51,2.1c-0.15,0.64-0.31,1.29-0.46,1.93c-0.14,0.58-0.28,1.16-0.42,1.75l-0.1,0.41
		c-0.01-0.02-0.01-0.04-0.02-0.06c-0.16-0.62-0.33-1.25-0.49-1.88c-0.36-1.38-0.74-2.8-1.11-4.2c-0.25-0.93-0.86-1.42-1.76-1.42
		c-0.01,0-0.02,0-0.02,0c-0.88,0.01-1.49,0.52-1.73,1.45c-0.14,0.53-0.27,1.07-0.4,1.59c-0.06,0.26-0.13,0.51-0.19,0.76l-0.96,3.83
		c-0.06-0.23-0.12-0.45-0.18-0.68l-0.14-0.55c-0.43-1.68-0.86-3.36-1.28-5.04c-0.11-0.45-0.35-1.08-1.12-1.28
		c-0.64-0.17-1.24-0.03-1.65,0.38c-0.41,0.42-0.55,1.03-0.37,1.68C52.61,31.14,53.59,34.69,54.57,38.18z"/>
	<path class="st3" d="M31.18,38.69c0.45,0.67,0.95,1,1.55,1c0.13,0,0.26-0.02,0.4-0.05c0.88-0.19,1.38-0.89,1.38-1.94
		c0-4.6,0-9.19,0-13.79c0-0.16-0.01-0.33-0.04-0.49c-0.07-0.49-0.35-0.93-0.76-1.2c-0.41-0.27-0.93-0.35-1.42-0.22
		c-0.77,0.21-1.26,0.85-1.27,1.67c-0.01,0.64-0.01,1.28,0,1.95c0,0.22,0,0.44,0,0.66c-0.06-0.03-0.11-0.06-0.16-0.09
		c-1.49-0.84-3.37-1.04-5.04-0.53c-1.59,0.49-2.87,1.58-3.6,3.08c-1.11,2.27-1.18,4.64-0.2,7.05c0.82,2.02,2.32,3.26,4.47,3.68
		C28.12,39.8,29.7,39.53,31.18,38.69z M25.37,34.88c-0.79-1.74-0.73-3.48,0.15-5.03c0.39-0.68,1.07-1.13,1.88-1.25
		c0.14-0.02,0.28-0.03,0.41-0.03c0.71,0,1.41,0.27,1.92,0.75c0.82,0.78,1.21,1.79,1.24,3.19c-0.03,1.32-0.39,2.29-1.13,3.06
		c-0.65,0.67-1.63,0.98-2.56,0.82C26.42,36.23,25.74,35.7,25.37,34.88z"/>
	<path class="st3" d="M42.8,39.7c0.32,0.05,0.64,0.07,0.95,0.07c1.49,0,2.92-0.53,4.09-1.53c1.57-1.34,2.39-3.21,2.45-5.59v0
		c0-1.49-0.33-2.8-0.99-4.01c-1.01-1.84-2.88-3.06-5-3.26c-2.12-0.2-4.19,0.66-5.52,2.28c-1.99,2.43-2.21,6.41-0.52,9.06
		C39.31,38.34,40.96,39.43,42.8,39.7z M41.46,29.75c0.5-0.74,1.34-1.17,2.25-1.17h0c0.92,0,1.77,0.45,2.28,1.2
		c0.52,0.76,0.78,1.67,0.8,2.84c-0.05,1.37-0.41,2.35-1.14,3.1c-0.57,0.58-1.36,0.88-2.18,0.81c-0.82-0.07-1.55-0.5-2.01-1.17
		C40.37,33.76,40.37,31.35,41.46,29.75z"/>
	<path class="st3" d="M98.58,42.2c0.62,0.44,1.45,0.66,2.29,0.66c0.99,0,2-0.3,2.74-0.88c1.08-0.84,1.94-1.97,2.62-3.44
		c0.65-1.4,1.32-2.9,2.11-4.73c0.58-1.33,1.15-2.7,1.71-4.01c0.24-0.57,0.48-1.13,0.72-1.7c0.17-0.39,0.35-0.98,0.05-1.6
		c-0.32-0.65-0.88-0.99-1.64-0.99h0c-0.74,0-1.32,0.37-1.62,1.03c-0.35,0.77-0.69,1.57-1.01,2.34l-0.18,0.43
		c-0.44,1.04-0.88,2.09-1.33,3.15l-0.43,1.02l-0.13-0.29c-0.18-0.41-0.35-0.8-0.52-1.19c-0.25-0.57-0.49-1.14-0.73-1.71
		c-0.52-1.2-1.05-2.44-1.58-3.65c-0.27-0.62-0.83-1.04-1.48-1.12c-0.63-0.08-1.24,0.17-1.64,0.67c-0.43,0.54-0.48,1.18-0.14,1.93
		c0.39,0.88,0.78,1.77,1.16,2.63c0.88,2,1.79,4.08,2.75,6.08c0.39,0.83,0.2,1.33-0.25,1.89c-0.6,0.75-1.07,1.04-1.98,0.59
		c-0.71-0.35-1.49-0.13-1.95,0.57C97.61,40.65,97.81,41.65,98.58,42.2z"/>
	<path class="st3" d="M69.89,38.13c0.12,0.93,0.82,1.54,1.75,1.54c0.02,0,0.04,0,0.06,0c0.98-0.03,1.67-0.78,1.68-1.84
		c0.01-2.56,0.01-5.16,0-7.73c0-0.21,0.05-0.35,0.2-0.48c0.66-0.61,1.45-0.92,2.36-0.92c0.01,0,0.02,0,0.03,0
		c0.93,0.01,1.47,0.41,1.72,1.32c0.09,0.33,0.14,0.61,0.15,0.87c0.02,1.52,0.02,3.06,0.03,4.54c0,0.63,0.01,1.26,0.01,1.89l0,0.12
		c0,0.23,0,0.47,0.02,0.7c0.08,0.8,0.74,1.45,1.56,1.51c0.54,0.04,1-0.11,1.35-0.43c0.37-0.35,0.58-0.88,0.58-1.5
		c0.01-2.4,0.01-4.57,0-6.73c0-0.53-0.05-1.06-0.13-1.59c-0.32-1.98-1.55-3.35-3.38-3.74c-1.8-0.39-3.36-0.17-4.74,0.67
		c-0.31-0.44-0.7-0.69-1.17-0.77c-0.55-0.09-1.07,0.04-1.45,0.37c-0.41,0.35-0.63,0.88-0.63,1.52c0,2.8,0,5.61,0,8.42l0,1.88
		C69.87,37.87,69.88,38,69.89,38.13z"/>
	<path class="st3" d="M142.64,39.34c0.44,0.32,1,0.42,1.54,0.27c0.83-0.24,1.27-0.89,1.28-1.87c0-0.76,0-1.53,0-2.29
		c0-1.76,0-3.58,0.01-5.36c0-0.15,0.09-0.36,0.2-0.47c0.61-0.6,1.4-0.91,2.33-0.91h0.01c0.94,0,1.5,0.43,1.73,1.31
		c0.11,0.43,0.17,0.93,0.17,1.53c0.01,1.37,0.01,2.76,0.01,4.1c0,0.7,0,1.41,0,2.12c0,0.9,0.41,1.54,1.15,1.81
		c0.21,0.07,0.42,0.11,0.63,0.11c0.35,0,0.69-0.1,0.98-0.31c0.47-0.33,0.74-0.87,0.75-1.48c0.01-2.31,0.01-4.67-0.01-7.21
		c0-0.45-0.05-0.93-0.15-1.48c-0.35-1.92-1.6-3.18-3.51-3.56c-1.73-0.34-3.23-0.11-4.57,0.7c-0.04-0.05-0.07-0.1-0.11-0.14
		c-0.46-0.57-1.22-0.79-1.94-0.56c-0.73,0.23-1.18,0.84-1.18,1.58c-0.01,1.77-0.01,3.57-0.01,5.31v1.35c0,0.36,0,0.72,0,1.08
		c0,1.01-0.01,2.05,0.02,3.08C141.98,38.56,142.22,39.04,142.64,39.34z"/>
	<path class="st3" d="M118.9,39.77L118.9,39.77c0.01,0,0.02,0,0.03,0c0.19-0.03,0.4-0.06,0.59-0.09c0.43-0.06,0.88-0.12,1.3-0.25
		c2.03-0.61,3.38-1.95,4.01-3.98c0.24-0.78-0.15-1.54-0.96-1.84c-0.8-0.3-1.54-0.08-2.05,0.6c-0.18,0.24-0.33,0.49-0.48,0.74
		c-0.07,0.12-0.14,0.24-0.22,0.35c-0.47,0.74-1.25,1.17-2.14,1.18c-0.01,0-0.02,0-0.04,0c-0.92,0-1.78-0.46-2.3-1.22
		c-1.02-1.51-1.11-3.17-0.27-4.93c0.5-1.06,1.35-1.65,2.44-1.7c1.1-0.05,1.95,0.44,2.6,1.5l0.04,0.08c0.14,0.23,0.28,0.46,0.46,0.67
		c0.42,0.51,0.92,0.73,1.5,0.65c0.58-0.07,1.04-0.35,1.28-0.78c0.27-0.47,0.27-1.08,0-1.71c-0.84-1.97-2.58-3.28-4.78-3.59
		c-2.25-0.32-4.49,0.51-5.85,2.18c-1.63,1.99-2.13,4.34-1.5,7C113.29,37.62,115.84,39.69,118.9,39.77z"/>
	<path class="st3" d="M90.65,39.71L90.65,39.71c0.01,0,0.01,0,0.02,0c0.07-0.01,0.15-0.01,0.24-0.02c0.25-0.02,0.56-0.05,0.87-0.11
		c2.32-0.48,3.88-1.86,4.62-4.1c0.27-0.81-0.14-1.59-0.99-1.89c-0.84-0.3-1.6-0.03-2.13,0.76c-0.12,0.18-0.24,0.38-0.35,0.57
		c-0.07,0.11-0.14,0.23-0.21,0.34c-0.47,0.76-1.26,1.19-2.15,1.2c-0.01,0-0.02,0-0.03,0c-0.95,0-1.83-0.48-2.36-1.28
		c-1.04-1.58-1-3.85,0.08-5.39c0.52-0.73,1.32-1.17,2.19-1.19c0.87-0.02,1.69,0.37,2.23,1.07c0.14,0.18,0.27,0.39,0.4,0.59
		c0.07,0.11,0.14,0.22,0.21,0.32c0.21,0.32,0.57,0.76,1.16,0.89c0.68,0.15,1.27-0.05,1.72-0.58c0.55-0.66,0.33-1.38,0.13-1.87
		c-0.84-1.97-2.58-3.28-4.76-3.59c-2.24-0.33-4.48,0.5-5.84,2.15c-1.72,2.08-2.21,4.5-1.47,7.21C85.03,37.81,87.5,39.69,90.65,39.71
		z"/>
	<path class="st3" d="M127.88,38.1c0.02,0.47,0.23,0.89,0.59,1.19c0.31,0.26,0.72,0.41,1.13,0.41c0.08,0,0.16-0.01,0.24-0.02
		c0.96-0.13,1.54-0.85,1.54-1.93c0-4.06,0-8.43,0-13.76c0-0.16-0.01-0.33-0.04-0.5c-0.08-0.48-0.34-0.9-0.74-1.17
		c-0.4-0.27-0.9-0.36-1.38-0.24c-0.87,0.21-1.35,0.87-1.35,1.84c0,1.63,0,3.26,0,4.88v2.03v1.18c0,0.97,0,1.93,0,2.9
		c0,0.29,0,0.57,0,0.85C127.85,36.55,127.85,37.33,127.88,38.1z"/>
	<path class="st3" d="M135.03,38.02c0.01,0.52,0.25,1,0.67,1.31c0.3,0.23,0.67,0.34,1.04,0.34c0.17,0,0.34-0.02,0.5-0.07
		c0.83-0.23,1.28-0.9,1.28-1.86c0-1.88,0-3.76,0-5.64v-2.19c0-0.18,0-0.36,0-0.54c0-0.4,0-0.82,0-1.23
		c-0.02-0.88-0.51-1.55-1.28-1.75c-0.55-0.15-1.12-0.04-1.55,0.28c-0.42,0.31-0.66,0.8-0.67,1.34c-0.02,1.16-0.01,2.35-0.01,3.49
		c0,0.49,0,0.99,0,1.48c0,0.01,0,0.02,0,0.02c0,0.49,0,0.98,0,1.47C135.02,35.64,135.01,36.84,135.03,38.02z"/>
	<path class="st3" d="M136.08,25.3c0.25,0.07,0.5,0.1,0.73,0.1c0.47,0,0.9-0.14,1.25-0.42c0.52-0.41,0.78-1.08,0.74-1.88
		c-0.03-0.58-0.17-1.39-1.03-1.8c-0.74-0.35-1.51-0.33-2.11,0.05c-0.6,0.38-0.94,1.05-0.94,1.85
		C134.72,24.32,135.2,25.06,136.08,25.3z"/>
	<path class="st3" d="M90.75,57.47c-25.95,4.47-45.56,23.55-51.83,47.1c-0.54,2.01,2.26,3.11,3.24,1.27
		c4.33-8.09,10.58-17.43,22.43-25.25c7.29-4.81,21.71-13.28,41.31-10.84c17.28,2.16,30.21,12.51,37.83,24.42
		c7.92,12.66,11.72,30.23,4.87,47.64c-7.23,18.38-21.58,26.98-29.29,31.08c-12.54,6.66-23.73,7.67-32.9,7.6
		c-2.09-0.02-2.46,2.96-0.44,3.46c23.68,5.77,49.82-2.31,66.17-22.95c15.93-20.11,18.26-47.56,6.95-69.73
		C146.18,66.69,118.55,52.67,90.75,57.47z"/>
	<path class="st3" d="M64.05,98.7c-0.16,0.08-0.31,0.18-0.46,0.3c-1.16,0.92-2.31,1.84-3.46,2.76c-1.69,1.36-3.37,2.73-5.08,4.07
		c-1.5,1.17-3.03,2.29-4.54,3.45c-0.4,0.31-0.76,0.68-1.16,0.99c-0.38,0.29-0.79,0.54-1.2,0.78c-0.26,0.15-0.57,0.21-0.83,0.36
		c-0.95,0.54-1.85,1.14-2.82,1.62c-1.43,0.72-2.92,1.32-4.54,1.45c-1.12,0.09-2.12-0.2-2.89-1.01c-0.52-0.54-1.02-1.12-1.41-1.76
		c-1.3-2.12-2.2-4.43-3-6.78c-1.88-5.53-3.24-11.2-4.32-16.93c-0.09-0.47-0.2-0.95-0.4-1.39c-0.51-1.13-1.4-1.21-2.16-0.22
		c-0.15,0.19-0.3,0.39-0.38,0.62c-0.3,0.85-0.63,1.7-0.83,2.58c-0.89,3.99-0.95,8.03-0.61,12.09c0.39,4.64,1.56,9.1,3.14,13.47
		c1.25,3.45,2.76,6.76,4.96,9.73c0.84,1.14,1.89,1.76,3.34,1.55c0.54-0.08,1.08-0.16,1.6-0.3c2.09-0.53,4.04-1.42,5.92-2.45
		c1.8-0.98,3.53-2.1,5.33-3.18c1.42-1.05,2.86-2.14,4.33-3.21c1.47-1.07,2.8-2.29,4.06-3.6c2.79-2.91,5.27-6.06,7.23-9.59
		c0.62-1.11,1.18-2.25,1.42-3.52c0.08-0.43,0.1-0.91,0.01-1.34C65.17,98.58,64.64,98.39,64.05,98.7z"/>
</g>
</svg>
